<svg width="487" height="487" xmlns="http://www.w3.org/2000/svg">
 <!-- Created with Method Draw - http://github.com/duopixel/Method-Draw/ -->
 <g>
  <title>background</title>
  <rect fill="none" id="canvas_background" height="489" width="489" y="-1" x="-1"/>
 </g>
 <g>
  <title>Layer 1</title>
  <circle id="svg_7" fill="#3f3d56" r="243.39999" cy="243.4" cx="243.39999"/>
  <path id="svg_8" opacity="0.1" d="m445.64999,243.39c0,111.7 -90.56,202.25 -202.25,202.25c-6.41,0 -12.76,-0.29 -19,-0.88c-100.56,-9.39 -179.75,-92.38 -183.12,-194.55q-0.12,-3.41 -0.12,-6.82q0,-7.66 0.57,-15.2c7.77,-104.59 95.1,-187 201.68,-187c92,0 169.64,61.42 194.17,145.48c0.43,1.51 0.86,3 1.27,4.55q2.25,8.5 3.8,17.29a204,204 0 0 1 3,34.88z"/>
  <path id="svg_9" opacity="0.4" fill="#585ec7" d="m445.64999,243.39c0,111.7 -90.56,202.25 -202.25,202.25c-109.41,0 -198.54,-86.9 -202.13,-195.43c23.06,0.66 46.55,-0.1 68.34,-7.61c23.62,-8.13 43.84,-23.69 65.59,-36c58.43,-32.95 128.16,-41.82 194.91,-35.3c22.67,2.21 46.18,6.81 67.46,15.27a202.39,202.39 0 0 1 8.08,56.77l0,0.05z"/>
  <path id="svg_10" opacity="0.4" fill="#585ec7" d="m445.64999,243.39c0,111.7 -90.56,202.25 -202.25,202.25c-6.41,0 -12.76,-0.29 -19,-0.88a202.26,202.26 0 0 1 -112.58,-174.56c23.06,0.66 46.55,-0.1 68.34,-7.61c23.63,-8.13 43.84,-23.69 65.59,-36c57.9,-32.66 126.89,-41.65 193.09,-35.47q2.25,8.5 3.8,17.29a204,204 0 0 1 3.01,34.98z"/>
  <path id="svg_11" fill="#585ec7" d="m445.64999,243.39c0,111.7 -90.56,202.25 -202.25,202.25s-202.25,-90.55 -202.25,-202.25q0,-7.66 0.57,-15.2a160.57,160.57 0 0 1 46.18,12.85c23.72,10.65 44.82,27 69.49,35.21c18,6 37.14,7.43 56.08,8c23.65,0.75 47.8,0.15 70.17,-7.56c23.62,-8.13 43.83,-23.69 65.59,-35.95c28.93,-16.32 60.66,-26.73 93.41,-32.29a204,204 0 0 1 3.01,34.94z"/>
  <path id="svg_40" opacity="0.6" fill="#fe7d1e" d="m212.39999,348.34c22.75,-4.2 22.85,-37.36 22.85,-37.36c-1,4.74 -3.33,5.2 -15.18,9s-19,16.05 -19,16.05c-35.41,-40.37 -65.85,3.59 -65.85,3.59a42,42 0 0 0 21.19,16.41c-1.4,3.42 -2.88,8.19 -1.14,9.94c2,2 7.47,-4.15 10.41,-7.84c0.88,0.1 1.76,0.19 2.64,0.25c1.69,3.39 5.88,12.3 5.87,17.59c0,0 9.66,-0.74 8.44,-18.35a72.86,72.86 0 0 0 17.77,-5.29s-1,27.47 7,28.91s15.84,11.18 15.84,11.18c11.88,-23.17 -10.84,-44.08 -10.84,-44.08z"/>
  <path id="svg_41" opacity="0.6" fill="#fe7d1e" d="m353.97999,296.35c22.68,4.54 35.07,-26.22 35.07,-26.22c-2.65,4 -5,3.59 -17.43,2.69s-23.59,7.82 -23.59,7.82c-17.91,-50.58 -62.49,-21 -62.49,-21a42,42 0 0 0 13.6,23.1c-2.57,2.66 -5.71,6.54 -4.74,8.8c1.12,2.65 8.47,-1.08 12.57,-3.42c0.78,0.43 1.57,0.83 2.36,1.21c0.31,3.78 0.9,13.61 -1.07,18.52c0,0 9.25,2.89 14.64,-13.92a72.53,72.53 0 0 0 18.37,1.68s-11.14,25.13 -4.2,29.46s10.56,16.25 10.56,16.25c19.65,-17.15 6.35,-44.97 6.35,-44.97z"/>
 </g>
</svg>